#N canvas 0 0 1490 893 10;
#X obj 230 360 line~;
#X text 410 400 sustain;
#X floatatom 320 130 5 0 0 0 - - -, f 5;
#X floatatom 390 150 5 0 0 0 - - -, f 5;
#X floatatom 510 130 5 0 0 0 - - -, f 5;
#X msg 280 270 1 \$1;
#X obj 320 250 delay;
#X msg 520 330 0 \$1;
#X obj 470 280 float;
#X floatatom 450 140 5 0 0 0 - - -, f 5;
#X text 290 100 attack time;
#X text 370 120 decay time;
#X text 430 100 sustain level;
#X text 530 110 release time;
#X obj 260 190 float;
#X msg 140 160 stop;
#X floatatom 590 310 5 0 0 0 - - -, f 5;
#X obj 160 60 inlet;
#X obj 160 110 select 0;
#X obj 170 220 bng 15 250 50 0 empty empty empty 17 7 0 10 #fcfcfc
#000000 #000000;
#X obj 310 70 inlet;
#X obj 380 70 inlet;
#X obj 430 70 inlet;
#X obj 520 80 inlet;
#X obj 230 410 outlet~;
#X obj 370 280 pack f f;
#X msg 400 370 \$2 \$1;
#X connect 0 0 24 0;
#X connect 2 0 14 1;
#X connect 2 0 6 1;
#X connect 3 0 25 0;
#X connect 4 0 8 1;
#X connect 5 0 0 0;
#X connect 6 0 25 0;
#X connect 7 0 0 0;
#X connect 8 0 7 0;
#X connect 8 0 16 0;
#X connect 9 0 25 1;
#X connect 14 0 5 0;
#X connect 14 0 6 0;
#X connect 15 0 6 0;
#X connect 17 0 18 0;
#X connect 18 0 8 0;
#X connect 18 0 15 0;
#X connect 18 1 19 0;
#X connect 19 0 14 0;
#X connect 20 0 2 0;
#X connect 21 0 3 0;
#X connect 22 0 9 0;
#X connect 23 0 4 0;
#X connect 25 0 26 0;
#X connect 26 0 0 0;
