#N canvas -8 -8 1506 908 10;
#X obj 240 90 key;
#X floatatom 240 130 5 0 0 0 - - -, f 5;
#X obj 640 90 key up;
#X floatatom 650 130 5 0 0 0 - - -, f 5;
#X obj 250 290 pack f 127;
#X msg 240 210 60;
#X obj 650 300 pack f 0;
#X obj 450 360 outlet;
#X msg 270 210 61;
#X msg 300 210 62;
#X msg 330 210 63;
#X msg 360 210 64;
#X msg 390 210 65;
#X msg 420 210 66;
#X obj 240 170 select 97 119 115 101 100 102 116 103 121 104 117 106
107;
#X msg 450 210 67;
#X msg 480 210 68;
#X msg 510 210 69;
#X msg 540 210 70;
#X msg 570 210 71;
#X msg 600 210 72;
#X msg 650 210 60;
#X msg 680 210 61;
#X msg 710 210 62;
#X msg 740 210 63;
#X msg 770 210 64;
#X msg 800 210 65;
#X msg 830 210 66;
#X obj 650 160 select 97 119 115 101 100 102 116 103 121 104 117 106
107;
#X msg 860 210 67;
#X msg 890 210 68;
#X msg 920 210 69;
#X msg 950 210 70;
#X msg 980 210 71;
#X msg 1010 210 72;
#X connect 0 0 1 0;
#X connect 1 0 14 0;
#X connect 2 0 3 0;
#X connect 3 0 28 0;
#X connect 4 0 7 0;
#X connect 5 0 4 0;
#X connect 6 0 7 0;
#X connect 8 0 4 0;
#X connect 9 0 4 0;
#X connect 10 0 4 0;
#X connect 11 0 4 0;
#X connect 12 0 4 0;
#X connect 13 0 4 0;
#X connect 14 0 5 0;
#X connect 14 1 8 0;
#X connect 14 2 9 0;
#X connect 14 3 10 0;
#X connect 14 4 11 0;
#X connect 14 5 12 0;
#X connect 14 6 13 0;
#X connect 14 7 15 0;
#X connect 14 8 16 0;
#X connect 14 9 17 0;
#X connect 14 10 18 0;
#X connect 14 11 19 0;
#X connect 14 12 20 0;
#X connect 15 0 4 0;
#X connect 16 0 4 0;
#X connect 17 0 4 0;
#X connect 18 0 4 0;
#X connect 19 0 4 0;
#X connect 20 0 4 0;
#X connect 21 0 6 0;
#X connect 22 0 6 0;
#X connect 23 0 6 0;
#X connect 24 0 6 0;
#X connect 25 0 6 0;
#X connect 26 0 6 0;
#X connect 27 0 6 0;
#X connect 28 0 21 0;
#X connect 28 1 22 0;
#X connect 28 2 23 0;
#X connect 28 3 24 0;
#X connect 28 4 25 0;
#X connect 28 5 26 0;
#X connect 28 6 27 0;
#X connect 28 7 29 0;
#X connect 28 8 30 0;
#X connect 28 9 31 0;
#X connect 28 10 32 0;
#X connect 28 11 33 0;
#X connect 28 12 34 0;
#X connect 29 0 6 0;
#X connect 30 0 6 0;
#X connect 31 0 6 0;
#X connect 32 0 6 0;
#X connect 33 0 6 0;
#X connect 34 0 6 0;
