#N canvas 0 0 1490 893 10;
#X obj 310 180 unpack f f;
#X obj 310 210 mtof;
#X obj 310 290 *~;
#X obj 310 360 dac~;
#X obj 310 320 *~ 0.5;
#X floatatom 480 190 5 0 0 0 - - -, f 5;
#X floatatom 520 190 5 0 0 0 - - -, f 5;
#X floatatom 560 190 5 0 0 0 - - -, f 5;
#X floatatom 600 200 5 0 0 0 - - -, f 5;
#X obj 470 250 adsr0~;
#X obj 310 110 keymap;
#X obj 310 250 osc~ 100;
#X connect 0 0 1 0;
#X connect 0 1 9 0;
#X connect 1 0 11 0;
#X connect 2 0 4 0;
#X connect 4 0 3 0;
#X connect 4 0 3 1;
#X connect 5 0 9 1;
#X connect 6 0 9 2;
#X connect 7 0 9 3;
#X connect 8 0 9 4;
#X connect 9 0 2 1;
#X connect 10 0 0 0;
#X connect 11 0 2 0;
